<svg width="32" height="32" viewBox="0 0 32 32" fill="none" xmlns="http://www.w3.org/2000/svg"><path d="M30.205 10.75H26.97l-4.5-8.501a.94.94 0 00-1.662.879l4.035 7.622H7.15l4.035-7.622a.94.94 0 00-1.66-.88L5.022 10.75H1.795c-.99 0-1.795.805-1.795 1.795v2.088c0 .948.74 1.726 1.671 1.79l3.153 13.109a.94.94 0 00.914.72h20.518a.94.94 0 00.913-.72l3.16-13.109A1.797 1.797 0 0032 14.633v-2.088c0-.99-.805-1.795-1.795-1.795zM1.88 12.63h28.24v1.918H1.88V12.63zm25.303 8.827h-4.115l.628-5.03h4.699l-1.212 5.03zM16.94 28.372v-5.035h3.998l-.629 5.035H16.94zm-5.249 0l-.629-5.035h3.998v5.035h-3.369zM3.606 16.428h4.7l.628 5.03H4.816l-1.21-5.03zm6.594 0h4.862v5.03h-4.234l-.628-5.03zm6.741 5.03v-5.03h4.86l-.627 5.03H16.94zM5.268 23.336h3.9l.63 5.035h-3.32l-1.21-5.035zm20.247 5.035h-3.31l.628-5.035h3.896l-1.213 5.035z" fill="#516C85"/></svg>