<svg width="30" height="30" viewBox="0 0 30 30" fill="none" xmlns="http://www.w3.org/2000/svg"><g opacity=".2" fill="#fff"><path d="M26.184 10.381a8.163 8.163 0 00-.524-2.77 5.762 5.762 0 00-3.291-3.29 8.257 8.257 0 00-2.733-.526c-1.202-.054-1.584-.069-4.636-.069-3.053 0-3.444 0-4.637.07a8.257 8.257 0 00-2.732.524A5.759 5.759 0 004.34 7.611a8.193 8.193 0 00-.524 2.732c-.054 1.203-.07 1.585-.07 4.637 0 3.053 0 3.443.07 4.638a8.24 8.24 0 00.524 2.733 5.762 5.762 0 003.292 3.29 8.23 8.23 0 002.732.563c1.204.054 1.585.07 4.637.07 3.053 0 3.444 0 4.638-.07a8.236 8.236 0 002.732-.524 5.77 5.77 0 003.292-3.291 8.232 8.232 0 00.523-2.734c.054-1.202.07-1.584.07-4.637-.002-3.053-.002-3.44-.072-4.637zM14.992 20.753a5.777 5.777 0 01-5.778-5.78 5.778 5.778 0 1111.557 0 5.779 5.779 0 01-5.779 5.78zm6.01-10.424a1.346 1.346 0 01-.517-2.592 1.347 1.347 0 11.516 2.592z"/><path d="M14.992 18.727a3.754 3.754 0 100-7.507 3.754 3.754 0 000 7.507z"/></g></svg>