<svg width="17" height="17" viewBox="0 0 17 17" fill="none" xmlns="http://www.w3.org/2000/svg"><g clip-path="url(#clip0)"><path opacity=".3" d="M11.561.551c.812.038 1.374.157 1.892.358.492.184.937.474 1.304.85.376.367.666.812.85 1.304.201.519.32 1.08.358 1.892.046 1.006.051 1.361.051 3.545s-.005 2.539-.051 3.545c-.038.812-.157 1.374-.358 1.893a3.574 3.574 0 01-.85 1.303 3.573 3.573 0 01-1.304.85c-.519.201-1.08.32-1.892.358-1.006.046-1.36.051-3.545.051-2.185 0-2.54-.005-3.545-.051-.812-.038-1.374-.157-1.893-.358a3.574 3.574 0 01-1.303-.85 3.573 3.573 0 01-.85-1.304c-.201-.519-.32-1.08-.358-1.892C.021 11.04.016 10.685.016 8.5c0-2.185.005-2.54.051-3.545.038-.812.157-1.374.358-1.892.184-.492.474-.937.85-1.304a3.573 3.573 0 011.303-.85c.52-.201 1.08-.32 1.893-.358C5.476.505 5.83.5 8.016.5c2.185 0 2.54.005 3.545.051zM8.016 2.278c-2.16 0-2.49.005-3.465.05-.618.027-.988.106-1.329.239a1.82 1.82 0 00-.69.448 1.801 1.801 0 00-.45.691c-.131.34-.21.711-.239 1.33-.044.973-.049 1.304-.049 3.464s.005 2.49.05 3.465c.027.618.106.988.239 1.328.113.291.233.476.448.692.216.216.401.336.691.448.34.132.711.212 1.33.24.974.044 1.305.049 3.464.049 2.16 0 2.49-.005 3.465-.05.618-.027.988-.106 1.329-.239a1.82 1.82 0 00.69-.448c.217-.216.337-.401.45-.691.131-.34.21-.711.239-1.33.044-.974.049-1.305.049-3.464 0-2.16-.005-2.49-.05-3.465-.027-.618-.106-.988-.239-1.328a1.806 1.806 0 00-.448-.692c-.193-.2-.43-.354-.692-.448-.34-.132-.711-.212-1.329-.24-.974-.044-1.305-.049-3.465-.049h.001zm0 10.37a4.148 4.148 0 110-8.296 4.148 4.148 0 010 8.296zm0-1.777a2.37 2.37 0 100-4.742 2.37 2.37 0 000 4.742zm4.148-5.63a.889.889 0 110-1.778.889.889 0 010 1.778z" fill="#516C85"/></g><defs><clipPath id="clip0"><path fill="#fff" transform="translate(.016 .5)" d="M0 0h16v16H0z"/></clipPath></defs></svg>