<svg width="38" height="39" viewBox="0 0 38 39" fill="none" xmlns="http://www.w3.org/2000/svg"><path d="M.865 38.58c-.546-.546.055-1.638.846-2.184.791-.546 2.293-.85 4.913-2.16s6.507-5.466 7.235-6.84c-.91.646-2.948 2.048-3.821 2.485-.874.436-1.65.68-2.73.546-1.525-.191-2.401-.874-3.275-2.184-.873-1.31-.364-4.185 0-5.459C2.942 22.24.536 21.448.213 19.51c-.18-1.072.363-2.183.545-2.73.182-.545 1.386-2.044 2.73-2.728 2.287-1.166 5.094 0 6.55.546 0 0-3.105-1.837-3.821-3.822-.728-2.015-.885-3.863.546-5.458 1.451-1.619 4.549-1.638 5.458-1.092l1.638-2.183c.364-.546 1.848-1.554 3.275-1.638 1.346-.08 2.246.22 3.275 1.092 1.24 1.048 1.602 1.625 1.883 3.275.281 1.65-.61 5.64-.791 7.096l2.73-3.82c.727-.91 2.62-2.73 4.366-2.73 2.184 0 3.52.672 4.367 1.763.846 1.092.364 3.695 0 4.787.182 0 .873.218 2.184 1.092 1.637 1.092 1.883 2.183 1.883 3.275s-.654 2.975-1.883 4.367c-2.827 3.199-8.007 1.092-10.918.546.91.546 3.166 2.226 4.913 4.579 2.183 2.941 2.488 6.102 0 7.976-1.873 1.41-4.367.546-6.005 0 .182.727-2.148 2.717-4.877 2.17-2.73-.545-2.946-5.445-2.765-8.175-1.091 1.82-4.086 5.447-5.423 6.538-1.337 1.092-2.112 1.788-3.45 2.334-1.336.546-5.212 2.556-5.758 2.01z" fill="#fff"/><path opacity=".8" d="M6.387 21.605c2.713-1.817 4.39-2.26 7.642-2.183m6.415 2.974c1.658 2.602 2.259 4.237 2.753 7.456m-.384-13.986c2.543-1.748 4.155-2.405 7.355-3.012M13.894 6.095c2.397 2.098 3.264 3.608 3.974 6.883" stroke="#40B89C" stroke-width=".5" stroke-linecap="round"/></svg>