<svg width="192" height="43" viewBox="0 0 192 43" fill="none" xmlns="http://www.w3.org/2000/svg"><path d="M.865 40.58c-.546-.546.055-1.638.846-2.184.791-.546 2.293-.85 4.913-2.16s6.507-5.466 7.235-6.84c-.91.646-2.948 2.048-3.821 2.485-.874.436-1.65.68-2.73.545-1.525-.19-2.401-.873-3.275-2.183-.873-1.31-.364-4.185 0-5.459C2.942 24.24.536 23.448.213 21.51c-.18-1.072.363-2.183.545-2.73.182-.545 1.386-2.044 2.73-2.728 2.287-1.166 5.094 0 6.55.546 0 0-3.105-1.837-3.821-3.822-.728-2.015-.885-3.863.546-5.458 1.451-1.619 4.549-1.638 5.458-1.092l1.638-2.183c.364-.546 1.848-1.554 3.275-1.638 1.346-.08 2.246.22 3.275 1.092 1.24 1.048 1.602 1.625 1.883 3.275.281 1.65-.61 5.64-.791 7.096l2.73-3.82c.727-.91 2.62-2.73 4.366-2.73 2.184 0 3.52.672 4.367 1.763.846 1.092.364 3.695 0 4.787.182 0 .873.218 2.184 1.092 1.637 1.092 1.883 2.183 1.883 3.275s-.654 2.975-1.883 4.367c-2.827 3.199-8.007 1.092-10.918.546.91.546 3.166 2.226 4.913 4.579 2.183 2.941 2.488 6.102 0 7.976-1.873 1.41-4.367.546-6.005 0 .182.727-2.148 2.717-4.877 2.17-2.73-.545-2.946-5.446-2.765-8.175-1.091 1.82-4.086 5.447-5.423 6.538-1.337 1.092-2.112 1.788-3.45 2.334-1.336.546-5.212 2.556-5.758 2.01z" fill="#fff"/><path opacity=".8" d="M6.387 23.605c2.713-1.817 4.39-2.26 7.642-2.183m6.415 2.974c1.658 2.602 2.259 4.237 2.753 7.456m-.384-13.986c2.543-1.748 4.155-2.405 7.355-3.012M13.894 8.095c2.397 2.098 3.264 3.608 3.974 6.883" stroke="#40B89C" stroke-width=".5" stroke-linecap="round"/><path d="M46.66 21.107v-1.468l1.515-.286V8.991l-1.515-.286V7.228h5.433v1.477l-1.516.286v4.328h6.073V8.991l-1.516-.286V7.228h5.424v1.477l-1.516.286v10.362l1.516.286v1.468h-5.424v-1.468l1.516-.286v-4.166h-6.072v4.166l1.515.286v1.468H46.66zm19.998.2c-.991 0-1.843-.222-2.554-.667a4.44 4.44 0 01-1.64-1.859c-.381-.788-.572-1.697-.572-2.726v-.2c0-1.024.19-1.929.572-2.717a4.44 4.44 0 011.64-1.859c.712-.451 1.557-.677 2.535-.677.992 0 1.843.226 2.555.677a4.364 4.364 0 011.64 1.859c.38.788.571 1.694.571 2.717v.2c0 1.036-.19 1.948-.572 2.736a4.376 4.376 0 01-1.639 1.849c-.705.445-1.55.667-2.536.667zm0-1.85c.795 0 1.386-.314 1.773-.943.388-.635.582-1.455.582-2.46v-.2c0-.984-.197-1.795-.591-2.43-.388-.642-.982-.963-1.783-.963-.794 0-1.385.321-1.773.963-.381.635-.572 1.446-.572 2.43v.2c0 1.005.191 1.825.572 2.46.388.63.985.944 1.792.944zm6.015 1.65v-1.468l1.44-.286v-6.797l-1.516-.285v-1.478h3.718l.114 1.354c.33-.49.75-.868 1.258-1.135.509-.273 1.096-.41 1.764-.41.673 0 1.248.153 1.725.458.483.299.848.753 1.096 1.363a3.663 3.663 0 011.249-1.335c.521-.324 1.131-.486 1.83-.486 1.03 0 1.843.353 2.44 1.059.598.705.896 1.773.896 3.202v4.49l1.44.286v1.468h-5.195v-1.468l1.353-.286v-4.509c0-.864-.146-1.47-.438-1.82-.292-.35-.721-.525-1.287-.525-.528 0-.963.169-1.306.505-.337.331-.556.76-.658 1.287v5.062l1.306.286v1.468h-5.004v-1.468l1.306-.286v-4.509c0-.832-.15-1.43-.448-1.792-.299-.368-.731-.553-1.297-.553-.47 0-.867.096-1.191.286-.318.19-.572.461-.763.81v5.758l1.354.286v1.468h-5.186zm23.297.2c-.979 0-1.827-.216-2.545-.648a4.525 4.525 0 01-1.678-1.811c-.394-.77-.59-1.65-.59-2.64v-.401c0-1.004.193-1.897.58-2.679.395-.788.932-1.404 1.612-1.849.686-.451 1.47-.677 2.354-.677 1.392 0 2.45.413 3.174 1.24.731.826 1.097 1.96 1.097 3.403v1.372h-6.33l-.019.048c.038.813.273 1.484.706 2.011.432.521 1.048.782 1.849.782.559 0 1.067-.076 1.525-.229a4.84 4.84 0 001.277-.648l.744 1.506c-.407.35-.925.642-1.554.877-.623.229-1.357.343-2.202.343zm-2.288-6.377h3.994v-.248c0-.673-.159-1.22-.476-1.64-.312-.419-.801-.628-1.468-.628-.585 0-1.058.235-1.42.705-.356.47-.576 1.058-.658 1.763l.028.048zm8.303 6.177v-2.221h2.393v2.22h-2.393zm8.979.2c-.966 0-1.804-.22-2.516-.658a4.487 4.487 0 01-1.64-1.83c-.381-.781-.572-1.68-.572-2.697v-.334c0-.998.191-1.888.572-2.67a4.416 4.416 0 011.63-1.839c.712-.451 1.551-.677 2.517-.677.883 0 1.652.143 2.307.43.654.279 1.191.629 1.611 1.048l.009 2.755h-1.83l-.353-1.821a1.886 1.886 0 00-.677-.438 2.296 2.296 0 00-.896-.172c-.794 0-1.407.315-1.839.944-.432.622-.649 1.436-.649 2.44v.334c0 1.093.217 1.922.649 2.488.438.565 1.001.848 1.687.848.546 0 .994-.15 1.344-.448.349-.299.578-.712.686-1.24h2.078l.029.058c-.115 1.01-.505 1.843-1.173 2.497-.661.655-1.652.982-2.974.982zm10.419 0c-.979 0-1.827-.216-2.545-.648a4.53 4.53 0 01-1.678-1.811c-.394-.77-.591-1.65-.591-2.64v-.401c0-1.004.194-1.897.582-2.679.394-.788.931-1.404 1.611-1.849.686-.451 1.471-.677 2.354-.677 1.392 0 2.45.413 3.174 1.24.731.826 1.097 1.96 1.097 3.403v1.372h-6.33l-.019.048c.038.813.273 1.484.706 2.011.432.521 1.048.782 1.849.782.559 0 1.067-.076 1.525-.229a4.846 4.846 0 001.277-.648l.744 1.506c-.407.35-.925.642-1.554.877-.623.229-1.357.343-2.202.343zm-2.288-6.377h3.994v-.248c0-.673-.159-1.22-.476-1.64-.312-.419-.801-.628-1.468-.628-.585 0-1.058.235-1.421.705-.355.47-.575 1.058-.657 1.763l.028.048zm7.769 6.177v-1.468l1.42-.286v-6.797l-1.506-.285v-1.478h3.718l.124 1.296.019.21c.553-1.131 1.353-1.697 2.402-1.697a3.4 3.4 0 011.058.153l-.276 2.22-1.344-.075c-.439-.026-.801.06-1.087.257-.286.197-.521.47-.705.82v5.376l1.429.286v1.468h-5.252zm11.506.2c-1.049 0-1.866-.27-2.45-.81-.585-.54-.877-1.284-.877-2.23 0-.973.394-1.761 1.182-2.365.794-.603 1.932-.905 3.412-.905h1.573v-.868c0-.546-.165-.981-.496-1.306-.324-.324-.797-.486-1.42-.486-.356 0-.67.045-.944.134a2.415 2.415 0 00-.734.362l-.209 1.392h-1.773l-.019-2.545a6.33 6.33 0 011.687-.792 7.175 7.175 0 012.087-.286c1.31 0 2.339.309 3.089.925.756.616 1.134 1.493 1.134 2.63v4.958c.007.127.016.257.029.39l1.048.134v1.468h-3.136a63.868 63.868 0 01-.181-.648 5.33 5.33 0 01-.114-.63c-.343.433-.76.789-1.249 1.068a3.303 3.303 0 01-1.639.41zm.543-1.859c.489 0 .94-.11 1.353-.333.42-.23.734-.515.944-.858V16.53h-1.601c-.718 0-1.262.169-1.63.506-.363.33-.544.718-.544 1.163 0 .832.493 1.248 1.478 1.248zm6.911 1.659v-1.468l1.439-.286v-6.797l-1.515-.285v-1.478h3.717l.114 1.354a3.42 3.42 0 011.259-1.135c.508-.273 1.096-.41 1.763-.41.674 0 1.249.153 1.726.458.483.299.848.753 1.096 1.363a3.66 3.66 0 011.248-1.335c.522-.324 1.132-.486 1.831-.486 1.029 0 1.843.353 2.44 1.059.597.705.896 1.773.896 3.202v4.49l1.439.286v1.468h-5.195v-1.468l1.354-.286v-4.509c0-.864-.146-1.47-.439-1.82-.292-.35-.721-.525-1.287-.525-.527 0-.962.169-1.305.505-.337.331-.556.76-.658 1.287v5.062l1.306.286v1.468h-5.005v-1.468l1.306-.286v-4.509c0-.832-.149-1.43-.448-1.792-.298-.368-.731-.553-1.296-.553-.47 0-.868.096-1.192.286-.317.19-.572.461-.762.81v5.758l1.353.286v1.468h-5.185zm18.502 0v-1.468l1.43-.286v-6.797l-1.516-.285v-1.478h3.918v8.56l1.42.286v1.468h-5.252zm1.334-12.65v-2.22h2.498v2.22h-2.498zm9.78 12.85c-.965 0-1.804-.22-2.516-.658a4.494 4.494 0 01-1.64-1.83c-.381-.781-.572-1.68-.572-2.697v-.334c0-.998.191-1.888.572-2.67a4.416 4.416 0 011.63-1.839c.712-.451 1.551-.677 2.517-.677.883 0 1.652.143 2.307.43.654.279 1.191.629 1.611 1.048l.009 2.755h-1.83l-.353-1.821a1.89 1.89 0 00-.676-.438 2.3 2.3 0 00-.896-.172c-.795 0-1.408.315-1.84.944-.432.622-.648 1.436-.648 2.44v.334c0 1.093.216 1.922.648 2.488.438.565 1.001.848 1.687.848.547 0 .995-.15 1.344-.448.35-.299.578-.712.686-1.24h2.078l.029.058c-.114 1.01-.505 1.843-1.172 2.497-.661.655-1.653.982-2.975.982zm9.809 0c-.737 0-1.426-.07-2.068-.21a10.919 10.919 0 01-1.916-.638l-.029-2.726h1.725l.363 1.486c.279.128.562.223.848.287.286.063.607.095.963.095.686 0 1.169-.12 1.449-.362.286-.242.429-.54.429-.896 0-.337-.15-.63-.448-.877-.293-.248-.855-.461-1.688-.639-1.239-.267-2.148-.655-2.726-1.163-.578-.515-.867-1.182-.867-2.002 0-.559.149-1.07.448-1.535.305-.463.75-.832 1.334-1.105.591-.274 1.316-.41 2.174-.41.781 0 1.474.082 2.078.248.61.159 1.128.372 1.553.638l.067 2.622h-1.716l-.295-1.363c-.413-.293-.941-.439-1.583-.439-.527 0-.943.118-1.248.353-.305.229-.458.518-.458.867 0 .305.121.57.362.791.242.223.776.426 1.602.61 1.341.312 2.3.719 2.879 1.22.578.503.867 1.167.867 1.993 0 .921-.337 1.678-1.01 2.269-.674.59-1.703.886-3.089.886z" fill="#fff"/><path opacity=".8" d="M47.087 38.958v-1.053l.725-.103 3.295-8.798h1.675l3.254 8.798.724.103v1.053h-3.165v-1.053l.711-.13-.526-1.566h-3.706l-.54 1.566.718.13v1.053h-3.165zm3.439-4.075h2.81l-1.293-3.677-.089-.267h-.04l-.096.28-1.292 3.664zm6.938 4.075v-1.053l1.032-.205v-4.874l-1.087-.205v-1.06h2.666l.082.97a2.45 2.45 0 01.903-.813c.364-.196.786-.294 1.264-.294.484 0 .896.11 1.238.328.346.215.608.54.786.978a2.62 2.62 0 01.895-.957c.374-.232.812-.349 1.313-.349.738 0 1.322.253 1.75.76.428.505.642 1.27.642 2.296v3.22l1.033.205v1.053h-3.726v-1.053l.97-.205v-3.234c0-.62-.104-1.055-.314-1.305-.21-.251-.517-.376-.922-.376-.379 0-.69.12-.937.362a1.707 1.707 0 00-.472.923v3.63l.937.205v1.053h-3.589v-1.053l.937-.205v-3.234c0-.597-.108-1.025-.322-1.285-.214-.264-.524-.396-.93-.396-.337 0-.621.068-.854.205-.228.136-.41.33-.547.58v4.13l.97.205v1.053h-3.718zm15.764.143c-.752 0-1.338-.194-1.757-.581-.42-.387-.629-.92-.629-1.6 0-.697.283-1.262.848-1.695.57-.433 1.385-.65 2.447-.65h1.128v-.621c0-.392-.118-.705-.356-.937-.232-.232-.572-.349-1.018-.349-.255 0-.48.032-.677.096-.196.06-.371.146-.526.26l-.15.998h-1.272l-.014-1.825a4.58 4.58 0 011.21-.568 5.17 5.17 0 011.497-.205c.94 0 1.677.221 2.215.663.542.442.814 1.071.814 1.887v3.556c.004.091.011.184.02.28l.752.096v1.053h-2.249a41.14 41.14 0 01-.13-.465 3.935 3.935 0 01-.082-.452c-.246.31-.545.566-.895.766a2.37 2.37 0 01-1.176.294zm.39-1.333c.35 0 .674-.08.97-.24.301-.163.527-.368.677-.614v-1.238h-1.148c-.516 0-.905.121-1.17.363-.26.237-.39.514-.39.834 0 .597.354.895 1.06.895zm5.14 1.19v-1.08l3.924-5.073h-2.317l-.199 1.258h-1.278v-2.502h5.879v1.128l-3.814 5.01h2.542l.246-1.319h1.231v2.578h-6.214zm7.164 0v-1.053l1.026-.205v-4.874l-1.087-.205v-1.06h2.81V37.7l1.018.205v1.053h-3.767zm.957-9.072v-1.592h1.791v1.592h-1.79zm3.548 9.072v-1.053l1.025-.205v-4.874l-1.08-.205v-1.06h2.666l.09 1.073c.245-.383.55-.679.915-.888.37-.215.786-.322 1.251-.322.761 0 1.354.235 1.778.704.423.47.635 1.199.635 2.188V37.7l1.026.205v1.053H95.02v-1.053l.964-.205v-3.37c0-.561-.112-.957-.335-1.19-.224-.237-.556-.355-.998-.355a1.654 1.654 0 00-1.477.84V37.7l.937.205v1.053h-3.685zm12.257 2.987a5.6 5.6 0 01-1.217-.15 4.752 4.752 0 01-1.169-.404l.356-1.264c.291.136.613.246.963.328.351.082.684.123.999.123.565 0 .977-.158 1.237-.472.264-.31.396-.75.396-1.32v-.58c-.469.597-1.1.895-1.893.895-.606 0-1.126-.15-1.559-.451-.433-.3-.765-.722-.998-1.265-.228-.542-.342-1.171-.342-1.886v-.144c0-.784.114-1.47.342-2.058.233-.592.563-1.052.991-1.38.429-.329.944-.493 1.545-.493.451 0 .843.094 1.176.28.333.183.615.445.848.787l.13-.93h2.372v1.06l-.889.191v5.982c0 .966-.289 1.731-.868 2.296-.579.57-1.386.855-2.42.855zm.137-4.204c.642 0 1.118-.276 1.428-.827v-3.295a1.691 1.691 0 00-.581-.609 1.535 1.535 0 00-.841-.225c-.565 0-.982.239-1.251.717-.264.474-.396 1.092-.396 1.853v.144c0 .683.13 1.228.39 1.633.264.406.681.609 1.251.609zm11.402 4.204a5.6 5.6 0 01-1.217-.15 4.752 4.752 0 01-1.169-.404l.356-1.264c.291.136.613.246.964.328.35.082.683.123.998.123.565 0 .977-.158 1.237-.472.264-.31.396-.75.396-1.32v-.58c-.469.597-1.1.895-1.893.895-.606 0-1.126-.15-1.559-.451-.433-.3-.765-.722-.998-1.265-.228-.542-.342-1.171-.342-1.886v-.144c0-.784.114-1.47.342-2.058.233-.592.563-1.052.991-1.38.429-.329.944-.493 1.545-.493.452 0 .843.094 1.176.28.333.183.615.445.848.787l.13-.93h2.372v1.06l-.889.191v5.982c0 .966-.289 1.731-.868 2.296-.579.57-1.386.855-2.42.855zm.137-4.204c.642 0 1.118-.276 1.428-.827v-3.295a1.691 1.691 0 00-.581-.609 1.534 1.534 0 00-.84-.225c-.566 0-.983.239-1.251.717-.265.474-.397 1.092-.397 1.853v.144c0 .683.13 1.228.39 1.633.264.406.681.609 1.251.609zm4.593 1.217v-1.053l1.033-.205v-8.142l-1.094-.205v-1.06h2.816V37.7l1.026.205v1.053h-3.781zm7.007.143c-.752 0-1.337-.194-1.757-.581-.419-.387-.628-.92-.628-1.6 0-.697.282-1.262.847-1.695.57-.433 1.386-.65 2.447-.65h1.128v-.621c0-.392-.118-.705-.355-.937-.233-.232-.572-.349-1.019-.349-.255 0-.48.032-.676.096-.196.06-.372.146-.527.26l-.15.998h-1.272l-.013-1.825c.36-.242.763-.43 1.21-.568a5.17 5.17 0 011.497-.205c.939 0 1.677.221 2.215.663.542.442.813 1.071.813 1.887v3.556c.005.091.011.184.021.28l.751.096v1.053h-2.249a54.58 54.58 0 01-.129-.465 3.73 3.73 0 01-.082-.452 3.1 3.1 0 01-.896.766 2.37 2.37 0 01-1.176.294zm.39-1.333c.351 0 .674-.08.971-.24.3-.163.526-.368.676-.614v-1.238h-1.148c-.515 0-.905.121-1.169.363-.26.237-.39.514-.39.834 0 .597.354.895 1.06.895zm8.101 1.333c-.529 0-1.024-.05-1.484-.15a7.825 7.825 0 01-1.374-.458l-.02-1.955h1.237l.26 1.066c.2.091.403.16.608.205.205.046.435.068.69.068.493 0 .839-.086 1.04-.26a.808.808 0 00.307-.642c0-.241-.107-.451-.321-.629-.21-.177-.613-.33-1.21-.458-.889-.191-1.54-.47-1.955-.834-.415-.369-.622-.848-.622-1.435 0-.401.107-.768.321-1.1.219-.334.538-.598.957-.794.424-.196.943-.294 1.559-.294.56 0 1.057.06 1.49.178.437.114.809.266 1.114.458l.048 1.88h-1.23l-.212-.978c-.297-.21-.675-.314-1.135-.314-.378 0-.677.084-.896.253-.218.164-.328.371-.328.622 0 .218.087.408.26.567.173.16.556.306 1.148.438.962.223 1.65.515 2.065.875.415.36.622.836.622 1.428 0 .661-.242 1.203-.725 1.627-.483.424-1.221.636-2.214.636zm7.041 0c-.529 0-1.024-.05-1.484-.15a7.825 7.825 0 01-1.374-.458l-.02-1.955h1.237l.26 1.066c.2.091.403.16.608.205.205.046.435.068.69.068.493 0 .839-.086 1.04-.26a.808.808 0 00.307-.642c0-.241-.107-.451-.321-.629-.21-.177-.613-.33-1.21-.458-.889-.191-1.54-.47-1.955-.834-.415-.369-.622-.848-.622-1.435 0-.401.107-.768.321-1.1.219-.334.538-.598.957-.794.424-.196.943-.294 1.559-.294.56 0 1.057.06 1.49.178.437.114.809.266 1.114.458l.048 1.88h-1.23l-.212-.978c-.297-.21-.675-.314-1.135-.314-.378 0-.677.084-.896.253-.218.164-.328.371-.328.622 0 .218.087.408.26.567.173.16.556.306 1.148.438.962.223 1.65.515 2.065.875.415.36.622.836.622 1.428 0 .661-.242 1.203-.725 1.627-.483.424-1.221.636-2.214.636z" fill="#fff"/></svg>