<svg width="188" height="36" viewBox="0 0 188 36" fill="none" xmlns="http://www.w3.org/2000/svg"><path d="M.63 34.98c-.5-.5.05-1.5.776-2 .724-.5 2.1-.78 4.5-1.98s5.96-5.006 6.627-6.265c-.834.592-2.7 1.876-3.5 2.276-.8.4-1.512.624-2.5.5-1.397-.174-2.2-.8-3-2-.8-1.2-.334-3.833 0-5-1-.5-3.204-1.224-3.5-3-.164-.982.333-2 .5-2.5.166-.5 1.27-1.873 2.5-2.5 2.095-1.067 4.666 0 6 .5 0 0-2.844-1.682-3.5-3.5-.667-1.846-.81-3.539.5-5 1.33-1.482 4.166-1.5 5-1l1.5-2c.333-.5 1.692-1.423 3-1.5 1.232-.072 2.057.202 3 1 1.135.96 1.467 1.489 1.725 3 .257 1.511-.559 5.167-.725 6.5l2.5-3.5c.666-.833 2.4-2.5 4-2.5 2 0 3.225.615 4 1.615.775 1 .333 3.385 0 4.385.166 0 .8.2 2 1 1.5 1 1.725 2 1.725 3s-.599 2.725-1.725 4c-2.59 2.93-7.334 1-10 .5.833.5 2.9 2.039 4.5 4.195 2 2.694 2.279 5.59 0 7.305-1.716 1.292-4 .5-5.5 0 .166.667-1.968 2.489-4.468 1.989-2.5-.5-2.699-4.989-2.532-7.489-1 1.667-3.743 4.989-4.968 5.989s-1.935 1.638-3.16 2.138c-1.224.5-4.775 2.341-5.275 1.841z" fill="#fff"/><path opacity=".8" d="M5.688 19.431c2.486-1.664 4.02-2.07 7-2m5.877 2.724c1.519 2.383 2.069 3.881 2.521 6.83m-.351-12.811c2.328-1.601 3.806-2.203 6.737-2.759M12.565 5.224c2.196 1.921 2.99 3.305 3.64 6.305" stroke="#283949" stroke-width=".5" stroke-linecap="round"/><path d="M43.387 25.763v-1.468l1.515-.286V13.648l-1.515-.286v-1.478h5.433v1.478l-1.516.286v4.327h6.072v-4.327l-1.515-.286v-1.478h5.424v1.478l-1.516.286v10.361l1.516.286v1.468H51.86v-1.468l1.516-.286v-4.165h-6.073v4.165l1.516.286v1.468h-5.433zm19.998.2c-.991 0-1.843-.222-2.554-.667a4.44 4.44 0 01-1.64-1.859c-.381-.788-.572-1.696-.572-2.726v-.2c0-1.023.19-1.929.572-2.717a4.44 4.44 0 011.64-1.859c.711-.45 1.557-.676 2.535-.676.992 0 1.843.225 2.555.676a4.365 4.365 0 011.64 1.86c.38.787.571 1.693.571 2.716v.2c0 1.036-.19 1.948-.572 2.736a4.376 4.376 0 01-1.639 1.85c-.705.444-1.55.666-2.536.666zm0-1.849c.795 0 1.386-.315 1.773-.944.388-.635.582-1.455.582-2.459v-.2c0-.985-.197-1.795-.591-2.43-.388-.643-.982-.964-1.783-.964-.794 0-1.385.321-1.773.963-.381.636-.572 1.446-.572 2.43v.201c0 1.004.191 1.824.572 2.46.388.628.985.943 1.792.943zm6.015 1.65v-1.469l1.44-.286v-6.796l-1.516-.286v-1.478h3.718l.114 1.354c.33-.49.75-.868 1.258-1.135.509-.273 1.096-.41 1.764-.41.673 0 1.248.153 1.725.458.483.299.848.753 1.096 1.363a3.662 3.662 0 011.249-1.334c.521-.324 1.131-.486 1.83-.486 1.03 0 1.843.352 2.44 1.058.598.705.896 1.773.896 3.203v4.49l1.44.285v1.468h-5.195v-1.468l1.353-.286V19.5c0-.864-.146-1.47-.438-1.82-.293-.35-.721-.524-1.287-.524-.528 0-.963.168-1.306.505-.337.33-.556.76-.658 1.287v5.061l1.306.286v1.468h-5.004v-1.468l1.306-.286V19.5c0-.832-.15-1.43-.448-1.792-.299-.368-.731-.552-1.297-.552-.47 0-.867.095-1.191.286-.318.19-.572.46-.763.81v5.757l1.354.286v1.468H69.4zm23.297.2c-.979 0-1.827-.217-2.545-.649a4.524 4.524 0 01-1.678-1.811c-.394-.769-.59-1.649-.59-2.64v-.4c0-1.005.193-1.898.58-2.68.395-.787.932-1.404 1.612-1.849.686-.45 1.47-.676 2.354-.676 1.392 0 2.45.413 3.174 1.239.731.826 1.097 1.96 1.097 3.403v1.372h-6.33l-.019.048c.038.814.273 1.484.706 2.011.432.522 1.048.782 1.849.782.559 0 1.067-.076 1.525-.229a4.84 4.84 0 001.277-.648l.744 1.506c-.407.35-.925.642-1.554.877-.623.229-1.357.343-2.202.343zm-2.288-6.378h3.994v-.248c0-.673-.159-1.22-.476-1.64-.312-.419-.801-.628-1.468-.628-.585 0-1.058.235-1.42.705-.356.47-.576 1.058-.658 1.764l.028.047zm8.303 6.177v-2.22h2.393v2.22h-2.393zm8.979.2c-.966 0-1.804-.219-2.516-.657a4.487 4.487 0 01-1.64-1.83c-.381-.782-.572-1.681-.572-2.698v-.334c0-.997.191-1.887.572-2.669a4.417 4.417 0 011.63-1.84c.712-.45 1.551-.676 2.517-.676.883 0 1.652.143 2.307.429.654.28 1.191.629 1.611 1.048l.009 2.755h-1.83l-.353-1.82a1.885 1.885 0 00-.677-.44 2.296 2.296 0 00-.896-.17c-.794 0-1.407.314-1.839.943-.433.623-.649 1.436-.649 2.44v.334c0 1.093.216 1.922.649 2.488.438.565 1.001.848 1.687.848.546 0 .994-.15 1.344-.448.349-.299.578-.712.686-1.24h2.078l.029.058c-.115 1.01-.505 1.843-1.173 2.497-.661.655-1.652.982-2.974.982zm10.419 0c-.979 0-1.827-.216-2.545-.648a4.53 4.53 0 01-1.678-1.811c-.394-.769-.591-1.649-.591-2.64v-.4c0-1.005.194-1.898.582-2.68.394-.787.931-1.404 1.611-1.849.686-.45 1.471-.676 2.354-.676 1.392 0 2.45.413 3.174 1.239.731.826 1.097 1.96 1.097 3.403v1.372h-6.33l-.019.048c.038.814.273 1.484.706 2.011.432.522 1.048.782 1.849.782.559 0 1.067-.076 1.525-.229a4.846 4.846 0 001.277-.648l.744 1.506c-.407.35-.925.642-1.554.877-.623.229-1.357.343-2.202.343zm-2.288-6.377h3.994v-.248c0-.673-.159-1.22-.476-1.64-.312-.419-.801-.628-1.468-.628-.585 0-1.058.235-1.421.705-.355.47-.575 1.058-.657 1.764l.028.047zm7.769 6.177v-1.468l1.42-.286v-6.796l-1.506-.286v-1.478h3.718l.124 1.297.019.21c.553-1.132 1.353-1.697 2.402-1.697.394 0 .747.05 1.058.152l-.276 2.221-1.344-.076c-.439-.026-.801.06-1.087.257-.286.197-.521.47-.705.82v5.376l1.429.286v1.468h-5.252zm11.506.2c-1.049 0-1.866-.27-2.45-.81-.585-.54-.877-1.284-.877-2.23 0-.973.394-1.76 1.182-2.364.794-.604 1.932-.906 3.412-.906h1.573v-.867c0-.547-.165-.982-.496-1.306-.324-.324-.797-.486-1.42-.486-.356 0-.67.044-.944.133a2.413 2.413 0 00-.734.362l-.209 1.392h-1.773l-.019-2.545a6.334 6.334 0 011.687-.791 7.178 7.178 0 012.087-.286c1.31 0 2.339.308 3.089.924.756.617 1.134 1.494 1.134 2.631v4.957c.007.127.016.257.029.39l1.048.134v1.468h-3.136a63.868 63.868 0 01-.181-.648 5.33 5.33 0 01-.114-.63c-.343.433-.76.789-1.249 1.069a3.304 3.304 0 01-1.639.41zm.543-1.858c.489 0 .94-.112 1.353-.334.42-.229.734-.515.944-.858v-1.725h-1.601c-.718 0-1.262.168-1.63.505-.363.33-.544.718-.544 1.163 0 .832.493 1.249 1.478 1.249zm6.911 1.658v-1.468l1.439-.286v-6.796l-1.515-.286v-1.478h3.717l.114 1.354c.331-.49.75-.868 1.259-1.135.508-.273 1.096-.41 1.763-.41.674 0 1.249.153 1.726.458.482.299.848.753 1.096 1.363a3.66 3.66 0 011.248-1.334c.522-.324 1.132-.486 1.831-.486 1.029 0 1.843.352 2.44 1.058.597.705.896 1.773.896 3.203v4.49l1.439.285v1.468h-5.195v-1.468l1.354-.286V19.5c0-.864-.146-1.47-.439-1.82-.292-.35-.721-.524-1.287-.524-.527 0-.962.168-1.305.505-.337.33-.556.76-.658 1.287v5.061l1.306.286v1.468h-5.005v-1.468l1.306-.286V19.5c0-.832-.149-1.43-.448-1.792-.298-.368-.731-.552-1.296-.552-.47 0-.868.095-1.192.286-.317.19-.572.46-.762.81v5.757l1.353.286v1.468h-5.185zm18.502 0v-1.468l1.43-.286v-6.796l-1.516-.286v-1.478h3.918v8.56l1.42.286v1.468h-5.252zm1.334-12.65v-2.22h2.498v2.22h-2.498zm9.78 12.85c-.965 0-1.804-.219-2.516-.657a4.494 4.494 0 01-1.64-1.83c-.381-.782-.572-1.681-.572-2.698v-.334c0-.997.191-1.887.572-2.669a4.417 4.417 0 011.63-1.84c.712-.45 1.551-.676 2.517-.676.883 0 1.652.143 2.307.429.654.28 1.191.629 1.611 1.048l.009 2.755h-1.83l-.353-1.82a1.89 1.89 0 00-.676-.44 2.3 2.3 0 00-.896-.17c-.795 0-1.408.314-1.84.943-.432.623-.648 1.436-.648 2.44v.334c0 1.093.216 1.922.648 2.488.438.565 1.001.848 1.687.848.547 0 .995-.15 1.344-.448.35-.299.578-.712.686-1.24h2.078l.029.058c-.114 1.01-.505 1.843-1.172 2.497-.661.655-1.653.982-2.975.982zm9.809 0c-.737 0-1.426-.07-2.068-.21a10.927 10.927 0 01-1.916-.638l-.029-2.726h1.725l.363 1.487c.279.127.562.222.848.286.286.063.607.095.963.095.686 0 1.169-.12 1.449-.362.286-.242.429-.54.429-.896 0-.337-.15-.63-.448-.877-.293-.248-.855-.46-1.688-.639-1.239-.267-2.148-.654-2.726-1.163-.578-.515-.867-1.182-.867-2.002 0-.559.149-1.07.448-1.534.305-.464.75-.833 1.334-1.106.591-.273 1.316-.41 2.174-.41.781 0 1.474.083 2.078.248.61.159 1.128.372 1.553.639l.067 2.621h-1.716l-.295-1.363c-.413-.292-.941-.439-1.583-.439-.527 0-.943.118-1.248.353-.305.229-.458.518-.458.868 0 .305.121.568.362.79.242.223.776.427 1.602.61 1.341.312 2.3.719 2.879 1.22.578.503.867 1.167.867 1.993 0 .922-.337 1.678-1.01 2.269-.674.59-1.703.886-3.089.886z" fill="#fff"/></svg>